<svg width="1007" height="1096" viewBox="0 0 1007 1096" fill="none" xmlns="http://www.w3.org/2000/svg">
<path d="M470.933 1.59094C464.4 2.65761 453.333 5.05754 446.4 7.05754C420.667 13.9909 412.267 18.2575 332.8 64.2575C291.067 88.3909 247.2 113.724 212.8 133.591C178.267 153.458 132 180.258 108.267 193.991C50.2667 227.591 10.5334 286.524 1.46674 352.791C-1.0666 371.458 -0.266598 403.324 3.46674 421.458C13.6001 472.124 38.5334 514.924 76.8001 546.791C90.8001 558.524 98.1334 563.191 137.467 585.858C156.533 596.791 203.6 623.991 242.133 646.258C280.667 668.524 325.333 694.391 341.467 703.591C357.6 712.924 396 735.058 426.8 752.791C457.6 770.658 496.533 793.058 513.467 802.658C554.267 826.124 563.6 834.924 571.733 858.258C580.133 882.658 573.2 911.324 554.267 930.258C539.2 945.324 520.267 952.524 499.467 951.191C481.2 949.991 483.467 951.191 399.467 902.658C388.133 896.124 357.2 878.258 330.8 863.058C275.867 831.324 228.667 803.991 136.933 751.058C98.4001 728.658 89.0667 724.924 73.2001 724.924C40.5334 725.058 13.6001 743.858 3.20007 773.858C-1.0666 786.524 -1.0666 807.058 3.3334 819.591C7.20007 830.791 16.5334 844.658 24.5334 851.324C28.0001 854.258 43.0667 863.724 58.1334 872.391C109.867 902.124 125.6 911.324 190.8 948.924C226.8 969.724 277.2 998.791 302.8 1013.59C328.533 1028.39 361.733 1047.59 376.667 1056.26C418.4 1080.39 440.133 1088.79 473.333 1093.72C493.2 1096.66 527.867 1095.72 546.533 1091.72C571.733 1086.26 593.733 1077.59 617.467 1063.72C624.8 1059.32 660.267 1038.92 696.133 1018.26C732.133 997.458 768.4 976.524 776.8 971.591C785.2 966.791 818.533 947.458 850.8 928.791C883.467 909.991 915.2 890.658 922.267 885.324C977.6 843.724 1010.27 774.124 1007.07 704.924C1004 637.858 970.933 576.791 916.8 538.124C910.933 533.991 899.467 526.658 891.2 521.858C863.333 505.858 825.6 484.124 802.8 470.924C790.4 463.724 766.667 449.991 750.133 440.524C733.6 430.924 711.2 417.991 700.133 411.591C662.533 389.858 514.8 304.658 496.133 293.991C464.533 275.724 458.933 271.991 451.2 263.991C439.067 251.191 433.067 236.924 432.133 218.924C430.533 186.924 448.8 159.324 479.467 147.724C486.8 144.924 490.4 144.391 503.467 144.391C522.667 144.391 526.8 145.858 555.867 162.658C582.4 177.991 691.867 241.191 717.467 255.991C727.733 261.858 740.933 269.591 746.8 273.058C752.667 276.391 769.733 286.258 784.8 294.924C799.867 303.591 820 315.191 829.467 320.658C915.6 370.524 912.267 368.924 931.467 369.858C993.867 373.058 1029.47 303.858 991.333 253.324C984.933 244.791 975.867 238.258 946.8 221.591C927.467 210.524 875.467 180.524 804.133 139.324C794.667 133.858 765.2 116.791 738.8 101.591C712.4 86.3909 683.333 69.5909 674.133 64.2575C664.933 58.9242 645.733 47.8575 631.467 39.5909C593.067 17.3242 575.2 9.72421 546.533 3.45754C529.2 -0.142456 488.4 -1.20906 470.933 1.59094ZM232.133 311.724C240.667 313.724 248.4 317.458 275.467 333.191C287.6 340.258 311.333 353.858 328.133 363.591C345.067 373.324 366.267 385.591 375.467 390.924C384.667 396.124 400 405.058 409.467 410.524C419.067 415.991 437.067 426.391 449.467 433.591C462 440.791 483.2 453.191 496.8 460.924C530.133 480.124 591.6 515.591 646.133 547.191C662.667 556.791 684 569.058 693.467 574.524C745.2 604.258 799.733 635.858 816.133 645.324C837.867 657.991 847.2 666.524 854.267 680.258C868.4 707.591 864.667 738.658 844.533 761.591C825.6 783.058 792.8 790.924 765.467 780.658C760.667 778.791 748.8 772.124 687.467 736.658C634.667 706.124 617.467 696.258 574.8 671.591C558.667 662.258 524.133 642.391 498.133 627.324C451.2 600.258 337.6 534.658 304.133 515.324C283.333 503.324 246.133 481.858 203.467 457.191C168.267 436.791 160.8 430.658 152.533 414.924C137.467 385.991 142.4 353.858 165.467 330.791C182.933 313.191 207.467 306.124 232.133 311.724Z" fill="#00EE64"/>
</svg>
